<?xml version="1.0" standalone="no"?>
<!DOCTYPE svg PUBLIC "-//W3C//DTD SVG 20010904//EN"
 "http://www.w3.org/TR/2001/REC-SVG-20010904/DTD/svg10.dtd">
<svg version="1.0" xmlns="http://www.w3.org/2000/svg"
 width="310.000000pt" height="310.000000pt" viewBox="0 0 310.000000 310.000000"
 preserveAspectRatio="xMidYMid meet">
<metadata>
Created by potrace 1.11, written by Peter Selinger 2001-2013
</metadata>
<g transform="translate(0.000000,310.000000) scale(0.100000,-0.100000)"
fill="#000000" stroke="none">
<path d="M1640 2688 c-36 -5 -81 -13 -100 -18 -19 -5 -64 -16 -100 -25 -169
-43 -395 -142 -599 -262 -310 -183 -664 -612 -737 -893 -33 -127 -14 -229 50
-259 79 -37 166 -27 456 58 338 98 468 164 915 466 341 229 488 322 601 379
97 49 272 126 286 126 5 0 43 16 84 35 92 42 134 83 134 132 0 49 -14 70 -73
107 -117 73 -277 126 -462 151 -111 16 -354 17 -455 3z"/>
<path d="M2730 2084 c-70 -13 -220 -80 -375 -167 -33 -18 -87 -48 -120 -67
-124 -69 -246 -146 -430 -273 -523 -362 -592 -399 -1035 -547 -171 -58 -255
-80 -301 -80 -56 0 -170 -27 -190 -46 -25 -23 -25 -83 1 -133 24 -48 88 -104
160 -141 115 -58 347 -119 535 -141 100 -12 317 -6 392 11 289 67 356 90 583
201 225 111 434 260 599 429 237 242 362 490 363 725 2 164 -26 221 -113 229
-24 2 -55 2 -69 0z"/>
</g>
</svg>
